<?xml version="1.0" standalone="no"?>
<!DOCTYPE svg PUBLIC "-//W3C//DTD SVG 20010904//EN"
 "http://www.w3.org/TR/2001/REC-SVG-20010904/DTD/svg10.dtd">
<svg version="1.0" xmlns="http://www.w3.org/2000/svg"
 width="1025.000000pt" height="1025.000000pt" viewBox="0 0 1025.000000 1025.000000"
 preserveAspectRatio="xMidYMid meet">

<g transform="translate(0.000000,1025.000000) scale(0.100000,-0.100000)"
fill="#34558B" stroke="none">
<path d="M5012 10069 c-30 -5 -83 -21 -119 -35 -54 -22 -3585 -2052 -3808
-2189 -69 -43 -167 -133 -206 -190 -42 -62 -81 -150 -100 -223 -18 -73 -19
-134 -19 -2306 0 -2486 -5 -2288 71 -2443 49 -99 141 -202 231 -261 138 -88
3767 -2178 3822 -2200 170 -69 385 -63 546 17 109 54 3776 2176 3829 2215 73
55 144 145 191 241 75 155 70 -19 70 2429 0 2460 5 2280 -74 2441 -53 107
-128 194 -223 258 -92 62 -3753 2174 -3819 2203 -108 47 -262 64 -392 43z
m177 -500 c17 -6 871 -496 1899 -1089 1673 -966 1870 -1082 1897 -1120 l30
-42 3 -2166 c2 -1593 0 -2178 -9 -2208 -6 -25 -26 -56 -48 -77 -20 -19 -873
-517 -1896 -1108 -1833 -1058 -1861 -1073 -1920 -1077 l-60 -4 -235 136 c-129
74 -975 562 -1880 1084 -1471 849 -1648 954 -1675 992 l-30 42 -3 2176 c-2
1455 1 2189 7 2212 6 20 25 49 43 66 34 32 3732 2171 3777 2184 38 12 64 11
100 -1z"/>
<path d="M5030 9002 c-129 -75 -241 -141 -248 -145 -9 -6 41 -40 160 -108 95
-55 176 -103 180 -107 4 -4 -490 -297 -1098 -650 l-1106 -643 -187 111 -188
110 -230 -132 c-127 -73 -236 -140 -241 -149 -9 -13 91 -76 631 -399 353 -211
650 -388 659 -394 13 -8 61 17 236 122 141 85 222 140 229 155 11 23 3 28
-198 148 -114 68 -207 128 -206 132 1 5 459 274 1017 598 558 325 1056 614
1106 644 l92 53 207 -119 c114 -65 209 -119 212 -119 7 0 493 293 490 296 -9
7 -1276 734 -1279 733 -2 0 -109 -62 -238 -137z"/>
<path d="M6496 8142 c-212 -129 -237 -147 -221 -158 10 -7 152 -91 317 -185
164 -95 295 -175 291 -180 -4 -4 -625 -368 -1380 -810 -1221 -714 -1371 -804
-1362 -820 12 -24 441 -279 468 -279 6 0 635 365 1397 811 762 446 1391 809
1397 806 7 -3 144 -84 305 -181 l294 -176 218 131 c214 129 256 164 227 187
-7 5 -131 80 -277 167 -146 87 -272 165 -280 172 -8 8 -118 74 -245 147 -126
73 -380 219 -563 324 -184 106 -337 192 -340 191 -4 -1 -114 -67 -246 -147z"/>
<path d="M1620 5053 l0 -1838 249 -142 c136 -79 251 -143 255 -143 3 0 7 686
8 1524 l3 1523 90 -56 90 -57 3 -1526 2 -1526 245 -141 c134 -78 247 -141 250
-141 3 0 5 677 5 1505 0 828 3 1505 6 1505 4 0 51 -27 105 -61 l99 -61 0
-1508 0 -1508 245 -141 c134 -78 247 -141 250 -141 3 0 5 805 5 1789 l0 1789
-942 590 c-519 324 -949 592 -955 596 -10 6 -13 -363 -13 -1831z"/>
<path d="M7943 6248 l-683 -411 0 -1774 0 -1773 23 14 c12 8 166 98 342 201
176 103 474 280 662 393 l343 207 0 293 0 293 -22 -12 c-13 -7 -201 -120 -418
-252 -217 -131 -403 -243 -412 -248 -17 -9 -18 14 -18 438 l0 448 435 245 434
245 1 288 c0 158 -3 287 -6 287 -3 0 -192 -106 -419 -235 -227 -129 -420 -238
-429 -241 -15 -6 -16 32 -14 447 l3 453 433 259 432 260 0 293 c0 162 -1 294
-2 293 -2 0 -310 -185 -685 -411z"/>
<path d="M6480 5125 l0 -604 -252 -317 -253 -316 -3 736 -2 736 -123 0 -122 0
-127 -77 -128 -78 0 -975 c0 -746 -3 -979 -12 -988 -9 -9 -9 -15 0 -24 9 -9
12 -244 12 -994 l0 -983 250 147 250 146 2 742 3 741 250 -116 250 -116 3
-473 c1 -259 5 -472 8 -472 3 0 115 64 250 143 l243 142 1 490 0 490 -355 165
c-195 91 -355 168 -355 172 0 5 160 208 355 453 l355 445 0 695 0 695 -250 0
-250 0 0 -605z"/>
<path d="M3782 3774 l3 -1808 248 -142 247 -143 0 739 c0 407 3 740 6 740 4 0
85 -43 180 -96 l174 -96 0 -748 0 -747 245 -142 c134 -77 247 -141 250 -141 3
0 5 816 5 1814 l0 1813 -657 368 c-362 203 -668 375 -681 383 l-22 14 2 -1808z
m750 807 l103 -59 3 -486 c1 -267 -1 -486 -4 -486 -4 0 -85 43 -180 96 l-174
96 0 490 0 489 75 -41 c41 -23 121 -67 177 -99z"/>
</g>
</svg>
